<?xml version="1.0" encoding="UTF-8"?> <svg xmlns="http://www.w3.org/2000/svg" id="Layer_2" data-name="Layer 2" viewBox="0 0 214.41 129.64"><defs><style> .cls-1, .cls-2 { stroke-width: 0px; } .cls-2 { fill: #52c2b6; } </style></defs><g id="Layer_1-2" data-name="Layer 1"><g><polygon class="cls-2" points="0 92.91 57.93 25.9 77.08 36.43 0 92.91"></polygon><polygon class="cls-2" points="170.49 30.03 0 92.75 144.64 0 170.49 30.03"></polygon><path class="cls-2" d="m214.41,86.5C165.48,44.77,22.34,87.78.01,92.74l184.3-57.41,30.1,51.17Z"></path></g><g><path class="cls-1" d="m14.9,110.64h3.91v7.17h9.42v-7.17h3.91v18.61h-3.91v-8.29h-9.42v8.29h-3.91v-18.61Z"></path><path class="cls-1" d="m43.73,110.64v18.61h-3.91v-18.61h3.91Z"></path><path class="cls-1" d="m69.36,129.25h-2.87c-.1-.43-.22-1.46-.27-2.18-1.2,1.6-2.89,2.57-6.44,2.57-5.98,0-9.42-4.06-9.42-9.61s3.63-9.79,10.13-9.79c5.85,0,8.36,3.12,8.92,5.83h-3.96c-.48-1.2-1.73-2.83-4.97-2.83-4.08,0-6,2.9-6,6.58,0,3.89,1.97,6.78,6.02,6.78,3.39,0,5.07-1.74,5.07-4.43v-.38h-5.02v-3.07h8.8v10.53h0Z"></path><path class="cls-1" d="m76.44,110.64h3.91v7.17h9.42v-7.17h3.91v18.61h-3.91v-8.29h-9.42v8.29h-3.91v-18.61Z"></path><path class="cls-1" d="m105.26,121.81v7.45h-3.87v-18.61h9.73c4.14,0,6.63,2,6.63,5.23,0,2.35-1.31,3.83-3.29,4.41.91.31,2.81,1.11,2.81,4.42v.89c0,1.33-.02,2.8.23,3.65h-4.01c-.3-.82-.31-2.02-.31-3.86v-.61c0-2.16-.81-2.97-3.7-2.97h-4.22Zm0-2.99h4.96c2.42,0,3.53-.86,3.53-2.64,0-1.65-1.12-2.54-3.47-2.54h-5.02v5.18Z"></path><path class="cls-1" d="m128.33,110.64v18.61h-3.91v-18.61h3.91Z"></path><path class="cls-1" d="m136.01,110.64h8.17c6.19,0,9.64,4.02,9.64,8.99,0,5.96-4.32,9.62-9.72,9.62h-8.09v-18.61h0Zm3.91,15.54h3.6c4.06,0,6.15-2.39,6.15-6.44,0-3.72-2.12-6-6.05-6.04h-3.71v12.48h0Z"></path><path class="cls-1" d="m178.27,129.25h-2.87c-.1-.43-.22-1.46-.27-2.18-1.2,1.6-2.89,2.57-6.44,2.57-5.98,0-9.42-4.06-9.42-9.61s3.63-9.79,10.13-9.79c5.85,0,8.36,3.12,8.92,5.83h-3.96c-.48-1.2-1.73-2.83-4.97-2.83-4.08,0-6,2.9-6,6.58,0,3.89,1.97,6.78,6.02,6.78,3.39,0,5.07-1.74,5.07-4.43v-.38h-5.02v-3.07h8.8v10.53h0Z"></path><path class="cls-1" d="m199.9,121.14h-10.64v4.95h11.8l-.47,3.17h-15.24v-18.61h15.11v3.17h-11.21v4.16h10.65v3.16Z"></path></g></g></svg> 