<svg data-name="Layer 1" xmlns="http://www.w3.org/2000/svg" viewBox="0 0 179 17">
  <g data-name="homepage thunderbolt display">
    <path d="M16.85 15.84a2.49 2.49 0 0 0 0-.64 11 11 0 0 0-.1-1.47L15.31 2.85 10.16 15a3.89 3.89 0 0 0-.36 1.09h-.45A5.36 5.36 0 0 0 9 15L4 3.25 2.71 13.32a10.6 10.6 0 0 0-.14 1.54 4.66 4.66 0 0 0 .1 1H0v-.26c1 0 1.4-.52 1.61-2L3.16 2.35v-.17a3.48 3.48 0 0 0 0-.36A1.69 1.69 0 0 0 1.66.26V0H5a2.08 2.08 0 0 0 .24.74l4.94 11.76 4.74-11.15A2.79 2.79 0 0 0 15.31 0h3.25v.26c-.95.07-1.4.48-1.4 1.21a1.41 1.41 0 0 0 0 .33l.07.4 1.66 11.52c.21 1.4.55 1.83 1.52 1.9v.21h-3.56"/>
    <path d="M33.38 16.06v-.09a8.44 8.44 0 0 0-.43-1.6l-2-5.08h-4.64l-1.85 4.77a5 5 0 0 0-.5 2H21.4v-.24a2.08 2.08 0 0 0 1.85-1.55L28.71.68A3 3 0 0 0 28.9 0h.52a3.61 3.61 0 0 0 .21.73L35 13.7c.64 1.58 1.09 2 2 2.12v.24zM28.59 3.31l-2 5.17h4l-2-5.17z"/>
    <path d="M52.49 14.06a22.67 22.67 0 0 0-.65 2.36 6.51 6.51 0 0 0-1 .15l-.86.2a12 12 0 0 1-2.38.23 8.38 8.38 0 0 1-8.68-8.29A8.84 8.84 0 0 1 47.83 0a10.32 10.32 0 0 1 2.44.3A8.42 8.42 0 0 0 52 .56v.17A19.39 19.39 0 0 0 52.44 3v.17h-.26C51.62 1.69 49.9.79 47.6.79c-3.84 0-6.49 3-6.49 7.41 0 4.64 2.75 8 6.49 8 2.14 0 4.05-1 4.68-2.43l.26.1v.15"/>
    <path d="M65.9 2.62a1.8 1.8 0 0 0-.66-1.23C64.72 1 64.17.82 62.33.82H59.58v6.46h4.55a6.09 6.09 0 0 0 1.48-.17v1.13a5.6 5.6 0 0 0-1.48-.14h-4.55v6a4.22 4.22 0 0 0 .23 1.92h-3.36v-.26c.93 0 1.25-.5 1.25-1.83v-12c0-1.09-.41-1.62-1.28-1.62V0h9.66v.19c0 .62 0 1.44.07 2.16v.25h-.25"/>
    <path d="M80.08 16.06v-.09a8.61 8.61 0 0 0-.43-1.6l-2-5.08H73l-1.85 4.77a5 5 0 0 0-.5 2H68.1v-.24a2.09 2.09 0 0 0 1.85-1.55L75.41.68a3 3 0 0 0 .18-.68h.52a3.51 3.51 0 0 0 .21.73l5.34 13c.64 1.58 1.09 2 2 2.12v.24zM75.29 3.31l-2 5.17h4l-2-5.17z"/>
    <path d="M99.45 16.06a5.51 5.51 0 0 1-3.2-1 5.32 5.32 0 0 1-1-1.11 22.53 22.53 0 0 1-1.7-2.63 8.36 8.36 0 0 0-1.95-2.57 3.12 3.12 0 0 0-1.78-.43h-.14v-.56h.83c2.54 0 3.79-1.16 3.79-3.53a3.51 3.51 0 0 0-1.21-2.87 4.45 4.45 0 0 0-2.86-.67A5.82 5.82 0 0 0 89 .78v13.17c0 1.3 0 1.4.24 1.87h-3.6v-.26c1 0 1.35-.57 1.35-1.92V2.25c0-1.71-.55-2-1.35-2V0h4.67c1.92 0 3.27.07 4.55.88A3.88 3.88 0 0 1 96.44 4c0 2.18-1.64 3.75-4.38 4.2 1.63.33 2.63 1.14 4.19 3.44l1.07 1.57a6.13 6.13 0 0 0 2 2.11 2.35 2.35 0 0 0 1.26.36 2.28 2.28 0 0 0 .54 0l.07.24a7.24 7.24 0 0 1-1.73.21"/>
    <path d="M114.77 13.55a22.84 22.84 0 0 0-.35 2.34v.17c-.76-.07-2.22-.12-3.1-.12h-7.2v-.26c1.06 0 1.42-.57 1.42-2.15V1.91c0-1.53-.69-1.67-1.39-1.67V0h4.75v.26c-1 .07-1.37.57-1.37 1.79v12.3c0 .43 0 .48.07.55s.33.19.9.19h2.81c2.08 0 2.86-.43 3.28-1.82h.24v.19"/>
    <path d="M127.75 16.06v-.09a8.42 8.42 0 0 0-.43-1.6l-2-5.08h-4.63l-1.85 4.77a5 5 0 0 0-.5 2h-2.56v-.24a2.09 2.09 0 0 0 1.85-1.55L123.07.68a3.11 3.11 0 0 0 .19-.68h.52a3.42 3.42 0 0 0 .21.73l5.34 13c.65 1.58 1.09 2 2 2.12v.24zM123 3.31l-2 5.17h4l-2-5.17z"/>
    <path d="M148.32 2.46v12.45a6.12 6.12 0 0 0 0 1.12h-.63a.24.24 0 0 0 0-.1c-.09-.14-.28-.4-.56-.79-.07-.1-.14-.17-.21-.26L137 3l.09 10.42a8.07 8.07 0 0 0 .33 2.53h-2.72v-.25c1.12 0 1.42-.53 1.42-2.17V1.92C135.6 1 134.86.29 134.25.26V0h2.93l10.28 12.35-.09-10.58v-.46a3.67 3.67 0 0 0-.16-1.31h2.61v.29c-1.1 0-1.49.57-1.49 2.17"/>
    <path d="M164.39 13.5c-.23 1.36-.3 1.77-.37 2.44v.12a.17.17 0 0 0-.09 0H153.8v-.24c1-.07 1.32-.53 1.32-2.08V2.22c0-1.31-.43-1.89-1.39-1.91V0H163.61l.09 2.51h-.25a1.53 1.53 0 0 0-.82-1.31 5.59 5.59 0 0 0-2.78-.36H157v6.54h4.39a5.15 5.15 0 0 0 1.61-.14v1.15a5.19 5.19 0 0 0-1.64-.17H157V15.03s.27.12 1.3.12h1.23c2.48 0 3.17-.1 3.78-.53a1.9 1.9 0 0 0 .8-1.34h.25v.17"/>
    <path d="M173.52 17a10.25 10.25 0 0 1-3.32-.67 5.81 5.81 0 0 0-.87-.2V14.8v-1.61h.27a4.1 4.1 0 0 0 4.19 3c2.21 0 3.91-1.48 3.91-3.29a2.72 2.72 0 0 0-1-2.2 7.6 7.6 0 0 0-2.4-1.21A12.4 12.4 0 0 1 171.21 8a4.14 4.14 0 0 1-1.7-3.43A4.67 4.67 0 0 1 174.37 0a11.48 11.48 0 0 1 2 .2 7.16 7.16 0 0 0 1.38.15v.22c.2 1.23.32 1.8.46 2.37L178 3a4.09 4.09 0 0 0-3.92-2.23 3 3 0 0 0-3.18 3 2.52 2.52 0 0 0 .9 2 7.36 7.36 0 0 0 2.26 1.19 16.52 16.52 0 0 1 3 1.41 4.1 4.1 0 0 1 1.94 3.49 5.19 5.19 0 0 1-5.48 5.14"/>
  </g>
</svg>
